# xmcd CD database file
#
# Track frame offsets:
#	150
#	20021
#	32484
#	48781
#	60174
#	74982
#	86642
#	100907
#	113376
#	126454
#
# Disc length: 1876 seconds
#
# Revision: 0
# Processed by: cddbd v1.5.1PL0 Copyright (c) Steve Scherf et al.
# Submitted via: CDex 1.51
#
DISCID=8007520a
DTITLE=Duke Ellington - Afro Bossa
DYEAR=1900
DGENRE=Jazz
TTITLE0=Afro Bossa
TTITLE1=Purple Gazelle
TTITLE2=Absinthe
TTITLE3=Moonbow
TTITLE4=Sempre Amore
TTITLE5=Silk Lace
TTITLE6=Tigress
TTITLE7=Angu
TTITLE8=Volupte
TTITLE9=Pyramid
EXTD=
EXTT0=
EXTT1=
EXTT2=
EXTT3=
EXTT4=
EXTT5=
EXTT6=
EXTT7=
EXTT8=
EXTT9=
PLAYORDER=
